<mxfile host="app.diagrams.net" agent="Mozilla/5.0 (Windows NT 10.0; Win64; x64) AppleWebKit/537.36 (KHTML, like Gecko) Chrome/137.0.0.0 Safari/537.36" version="27.1.1">
  <diagram name="Page-1" id="K12ovA7CdjedfH8PsofF">
    <mxGraphModel dx="1209" dy="1729" grid="1" gridSize="10" guides="1" tooltips="1" connect="1" arrows="1" fold="1" page="1" pageScale="1" pageWidth="850" pageHeight="1100" math="0" shadow="0">
      <root>
        <mxCell id="0" />
        <mxCell id="1" parent="0" />
        <mxCell id="MxsXfyr07a4d1FS-8bJw-24" value="Update Stock" style="ellipse;whiteSpace=wrap;html=1;align=center;" vertex="1" parent="1">
          <mxGeometry x="820" y="50" width="120" height="40" as="geometry" />
        </mxCell>
        <mxCell id="MxsXfyr07a4d1FS-8bJw-25" value="Submit Payment" style="ellipse;whiteSpace=wrap;html=1;align=center;" vertex="1" parent="1">
          <mxGeometry x="820" y="200" width="120" height="40" as="geometry" />
        </mxCell>
        <mxCell id="MxsXfyr07a4d1FS-8bJw-26" value="Add Product to Cart" style="ellipse;whiteSpace=wrap;html=1;align=center;" vertex="1" parent="1">
          <mxGeometry x="820" y="300" width="120" height="40" as="geometry" />
        </mxCell>
        <mxCell id="MxsXfyr07a4d1FS-8bJw-27" value="Browse Product by Category" style="ellipse;whiteSpace=wrap;html=1;align=center;" vertex="1" parent="1">
          <mxGeometry x="820" y="390" width="120" height="40" as="geometry" />
        </mxCell>
        <mxCell id="MxsXfyr07a4d1FS-8bJw-28" value="Place Order" style="ellipse;whiteSpace=wrap;html=1;align=center;" vertex="1" parent="1">
          <mxGeometry x="820" y="120" width="120" height="40" as="geometry" />
        </mxCell>
        <mxCell id="MxsXfyr07a4d1FS-8bJw-29" value="View Billing Information" style="ellipse;whiteSpace=wrap;html=1;align=center;" vertex="1" parent="1">
          <mxGeometry x="820" y="480" width="120" height="40" as="geometry" />
        </mxCell>
        <mxCell id="MxsXfyr07a4d1FS-8bJw-36" value="Manage Order" style="ellipse;whiteSpace=wrap;html=1;align=center;" vertex="1" parent="1">
          <mxGeometry x="820" y="-440" width="120" height="40" as="geometry" />
        </mxCell>
        <mxCell id="MxsXfyr07a4d1FS-8bJw-37" value="Manage Payment" style="ellipse;whiteSpace=wrap;html=1;align=center;" vertex="1" parent="1">
          <mxGeometry x="820" y="-360" width="120" height="40" as="geometry" />
        </mxCell>
        <mxCell id="MxsXfyr07a4d1FS-8bJw-38" value="Manage Product" style="ellipse;whiteSpace=wrap;html=1;align=center;" vertex="1" parent="1">
          <mxGeometry x="820" y="-270" width="120" height="40" as="geometry" />
        </mxCell>
        <mxCell id="MxsXfyr07a4d1FS-8bJw-39" value="Manage Admin" style="ellipse;whiteSpace=wrap;html=1;align=center;" vertex="1" parent="1">
          <mxGeometry x="820" y="-190" width="120" height="40" as="geometry" />
        </mxCell>
        <mxCell id="MxsXfyr07a4d1FS-8bJw-40" value="Manage Supplier" style="ellipse;whiteSpace=wrap;html=1;align=center;" vertex="1" parent="1">
          <mxGeometry x="820" y="-110" width="120" height="40" as="geometry" />
        </mxCell>
        <mxCell id="MxsXfyr07a4d1FS-8bJw-41" value="Supply Product" style="ellipse;whiteSpace=wrap;html=1;align=center;" vertex="1" parent="1">
          <mxGeometry x="820" y="-20" width="120" height="40" as="geometry" />
        </mxCell>
        <mxCell id="MxsXfyr07a4d1FS-8bJw-46" value="Admin" style="shape=umlActor;verticalLabelPosition=bottom;verticalAlign=top;outlineConnect=0;html=1;" vertex="1" parent="1">
          <mxGeometry x="660" y="-320" width="30" height="60" as="geometry" />
        </mxCell>
        <mxCell id="MxsXfyr07a4d1FS-8bJw-49" value="Supplier" style="shape=umlActor;verticalLabelPosition=bottom;verticalAlign=top;html=1;outlineConnect=0;" vertex="1" parent="1">
          <mxGeometry x="1090" y="-210" width="30" height="60" as="geometry" />
        </mxCell>
        <mxCell id="MxsXfyr07a4d1FS-8bJw-50" value="Customer" style="shape=umlActor;verticalLabelPosition=bottom;verticalAlign=top;html=1;outlineConnect=0;" vertex="1" parent="1">
          <mxGeometry x="630" y="220" width="30" height="60" as="geometry" />
        </mxCell>
        <mxCell id="MxsXfyr07a4d1FS-8bJw-56" value="" style="endArrow=classic;html=1;rounded=0;entryX=0;entryY=0.5;entryDx=0;entryDy=0;" edge="1" parent="1" target="MxsXfyr07a4d1FS-8bJw-36">
          <mxGeometry width="50" height="50" relative="1" as="geometry">
            <mxPoint x="700" y="-300" as="sourcePoint" />
            <mxPoint x="800" y="-200" as="targetPoint" />
          </mxGeometry>
        </mxCell>
        <mxCell id="MxsXfyr07a4d1FS-8bJw-57" value="" style="endArrow=classic;html=1;rounded=0;entryX=0;entryY=0.5;entryDx=0;entryDy=0;" edge="1" parent="1" target="MxsXfyr07a4d1FS-8bJw-37">
          <mxGeometry width="50" height="50" relative="1" as="geometry">
            <mxPoint x="710" y="-290" as="sourcePoint" />
            <mxPoint x="800" y="-200" as="targetPoint" />
          </mxGeometry>
        </mxCell>
        <mxCell id="MxsXfyr07a4d1FS-8bJw-58" value="" style="endArrow=classic;html=1;rounded=0;entryX=0;entryY=0.5;entryDx=0;entryDy=0;" edge="1" parent="1" target="MxsXfyr07a4d1FS-8bJw-38">
          <mxGeometry width="50" height="50" relative="1" as="geometry">
            <mxPoint x="710" y="-270" as="sourcePoint" />
            <mxPoint x="800" y="-200" as="targetPoint" />
          </mxGeometry>
        </mxCell>
        <mxCell id="MxsXfyr07a4d1FS-8bJw-59" value="" style="endArrow=classic;html=1;rounded=0;entryX=0;entryY=0.5;entryDx=0;entryDy=0;" edge="1" parent="1" target="MxsXfyr07a4d1FS-8bJw-39">
          <mxGeometry width="50" height="50" relative="1" as="geometry">
            <mxPoint x="710" y="-260" as="sourcePoint" />
            <mxPoint x="800" y="-200" as="targetPoint" />
          </mxGeometry>
        </mxCell>
        <mxCell id="MxsXfyr07a4d1FS-8bJw-60" value="" style="endArrow=classic;html=1;rounded=0;entryX=0;entryY=0.5;entryDx=0;entryDy=0;" edge="1" parent="1" target="MxsXfyr07a4d1FS-8bJw-40">
          <mxGeometry width="50" height="50" relative="1" as="geometry">
            <mxPoint x="700" y="-250" as="sourcePoint" />
            <mxPoint x="800" y="-200" as="targetPoint" />
          </mxGeometry>
        </mxCell>
        <mxCell id="MxsXfyr07a4d1FS-8bJw-61" value="" style="endArrow=classic;html=1;rounded=0;" edge="1" parent="1">
          <mxGeometry width="50" height="50" relative="1" as="geometry">
            <mxPoint x="1080" y="-130" as="sourcePoint" />
            <mxPoint x="940" y="50" as="targetPoint" />
          </mxGeometry>
        </mxCell>
        <mxCell id="MxsXfyr07a4d1FS-8bJw-62" value="" style="endArrow=classic;html=1;rounded=0;entryX=0.998;entryY=0.224;entryDx=0;entryDy=0;entryPerimeter=0;" edge="1" parent="1" target="MxsXfyr07a4d1FS-8bJw-41">
          <mxGeometry width="50" height="50" relative="1" as="geometry">
            <mxPoint x="1080" y="-150" as="sourcePoint" />
            <mxPoint x="1040" y="-180" as="targetPoint" />
          </mxGeometry>
        </mxCell>
        <mxCell id="MxsXfyr07a4d1FS-8bJw-64" value="" style="endArrow=classic;html=1;rounded=0;entryX=0;entryY=0.5;entryDx=0;entryDy=0;" edge="1" parent="1" target="MxsXfyr07a4d1FS-8bJw-28">
          <mxGeometry width="50" height="50" relative="1" as="geometry">
            <mxPoint x="670" y="230" as="sourcePoint" />
            <mxPoint x="800" y="210" as="targetPoint" />
          </mxGeometry>
        </mxCell>
        <mxCell id="MxsXfyr07a4d1FS-8bJw-65" value="" style="endArrow=classic;html=1;rounded=0;" edge="1" parent="1" target="MxsXfyr07a4d1FS-8bJw-25">
          <mxGeometry width="50" height="50" relative="1" as="geometry">
            <mxPoint x="670" y="240" as="sourcePoint" />
            <mxPoint x="800" y="100" as="targetPoint" />
          </mxGeometry>
        </mxCell>
        <mxCell id="MxsXfyr07a4d1FS-8bJw-66" value="" style="endArrow=classic;html=1;rounded=0;" edge="1" parent="1">
          <mxGeometry width="50" height="50" relative="1" as="geometry">
            <mxPoint x="670" y="260" as="sourcePoint" />
            <mxPoint x="820" y="310" as="targetPoint" />
          </mxGeometry>
        </mxCell>
        <mxCell id="MxsXfyr07a4d1FS-8bJw-67" value="" style="endArrow=classic;html=1;rounded=0;entryX=0;entryY=0.5;entryDx=0;entryDy=0;" edge="1" parent="1" target="MxsXfyr07a4d1FS-8bJw-27">
          <mxGeometry width="50" height="50" relative="1" as="geometry">
            <mxPoint x="680" y="290" as="sourcePoint" />
            <mxPoint x="800" y="210" as="targetPoint" />
          </mxGeometry>
        </mxCell>
        <mxCell id="MxsXfyr07a4d1FS-8bJw-68" value="" style="endArrow=classic;html=1;rounded=0;" edge="1" parent="1">
          <mxGeometry width="50" height="50" relative="1" as="geometry">
            <mxPoint x="660" y="300" as="sourcePoint" />
            <mxPoint x="810" y="490" as="targetPoint" />
          </mxGeometry>
        </mxCell>
        <mxCell id="MxsXfyr07a4d1FS-8bJw-71" value="" style="endArrow=classic;html=1;rounded=0;entryX=0;entryY=0;entryDx=0;entryDy=0;exitX=0;exitY=1;exitDx=0;exitDy=0;dashed=1;dashPattern=8 8;" edge="1" parent="1" source="MxsXfyr07a4d1FS-8bJw-28" target="MxsXfyr07a4d1FS-8bJw-26">
          <mxGeometry width="50" height="50" relative="1" as="geometry">
            <mxPoint x="750" y="150" as="sourcePoint" />
            <mxPoint x="800" y="100" as="targetPoint" />
            <Array as="points">
              <mxPoint x="810" y="160" />
              <mxPoint x="790" y="180" />
              <mxPoint x="780" y="220" />
              <mxPoint x="790" y="260" />
            </Array>
          </mxGeometry>
        </mxCell>
        <mxCell id="MxsXfyr07a4d1FS-8bJw-72" value="" style="endArrow=classic;html=1;rounded=0;exitX=0;exitY=1;exitDx=0;exitDy=0;dashed=1;dashPattern=8 8;" edge="1" parent="1" source="MxsXfyr07a4d1FS-8bJw-38" target="MxsXfyr07a4d1FS-8bJw-24">
          <mxGeometry width="50" height="50" relative="1" as="geometry">
            <mxPoint x="750" y="-50" as="sourcePoint" />
            <mxPoint x="800" y="-100" as="targetPoint" />
            <Array as="points">
              <mxPoint x="760" y="-190" />
              <mxPoint x="720" y="-140" />
              <mxPoint x="710" y="-90" />
              <mxPoint x="730" y="-10" />
              <mxPoint x="780" y="30" />
            </Array>
          </mxGeometry>
        </mxCell>
        <mxCell id="MxsXfyr07a4d1FS-8bJw-73" value="" style="endArrow=classic;html=1;rounded=0;entryX=0.5;entryY=0;entryDx=0;entryDy=0;exitX=0.5;exitY=1;exitDx=0;exitDy=0;dashed=1;dashPattern=8 8;" edge="1" parent="1" source="MxsXfyr07a4d1FS-8bJw-28" target="MxsXfyr07a4d1FS-8bJw-25">
          <mxGeometry width="50" height="50" relative="1" as="geometry">
            <mxPoint x="830" y="300" as="sourcePoint" />
            <mxPoint x="880" y="250" as="targetPoint" />
          </mxGeometry>
        </mxCell>
        <mxCell id="MxsXfyr07a4d1FS-8bJw-74" value="&amp;lt;&amp;lt;extend&amp;gt;&amp;gt;" style="text;strokeColor=none;align=center;fillColor=none;html=1;verticalAlign=middle;whiteSpace=wrap;rounded=0;" vertex="1" parent="1">
          <mxGeometry x="720" y="200" width="60" height="30" as="geometry" />
        </mxCell>
        <mxCell id="MxsXfyr07a4d1FS-8bJw-76" value="&amp;lt;&amp;lt;include&amp;gt;&amp;gt;" style="text;strokeColor=none;align=center;fillColor=none;html=1;verticalAlign=middle;whiteSpace=wrap;rounded=0;" vertex="1" parent="1">
          <mxGeometry x="890" y="160" width="60" height="30" as="geometry" />
        </mxCell>
        <mxCell id="MxsXfyr07a4d1FS-8bJw-77" value="&amp;lt;&amp;lt;include&amp;gt;&amp;gt;" style="text;strokeColor=none;align=center;fillColor=none;html=1;verticalAlign=middle;whiteSpace=wrap;rounded=0;" vertex="1" parent="1">
          <mxGeometry x="640" y="-80" width="60" height="30" as="geometry" />
        </mxCell>
        <mxCell id="MxsXfyr07a4d1FS-8bJw-78" value="Use Case Diagram" style="text;strokeColor=none;align=center;fillColor=none;html=1;verticalAlign=middle;whiteSpace=wrap;rounded=0;fontSize=22;" vertex="1" parent="1">
          <mxGeometry x="762.5" y="-510" width="235" height="30" as="geometry" />
        </mxCell>
      </root>
    </mxGraphModel>
  </diagram>
</mxfile>
